<svg width="94" height="79" viewBox="0 0 94 79" fill="none" xmlns="http://www.w3.org/2000/svg">
<path d="M38.8458 0.00689697L25.8049 24.5332L37.0366 24.141C37.2704 26.0512 37.9157 27.9418 39.0028 29.6815C42.9793 36.0454 51.3619 37.9806 57.7257 34.0041C64.0895 30.0275 66.0247 21.645 62.0482 15.2812C58.4326 9.49499 51.1745 7.36992 45.1032 10.0209L38.8458 0.00689697Z" fill="white"/>
<path d="M7.34123 70.688C7.26923 70.688 7.23322 70.664 7.23322 70.616C6.87322 70.256 6.64522 69.812 6.54922 69.284C6.47722 68.756 6.47722 68.192 6.54922 67.592C6.64522 66.992 6.80122 66.38 7.01722 65.756C7.23322 65.132 7.44922 64.544 7.66523 63.992C8.52922 61.88 9.36922 59.72 10.1852 57.512C11.0012 55.304 11.7332 53.252 12.3812 51.356C11.3012 51.62 10.2812 51.968 9.32123 52.4C8.36123 52.832 7.53322 53.432 6.83722 54.2C6.66922 54.368 6.45322 54.608 6.18922 54.92C5.94922 55.232 5.72123 55.568 5.50523 55.928C5.28923 56.264 5.10922 56.612 4.96522 56.972C4.84522 57.308 4.80922 57.584 4.85722 57.8C4.80922 58.016 4.68922 58.064 4.49722 57.944C4.32922 57.824 4.14922 57.62 3.95722 57.332C3.76522 57.044 3.59722 56.72 3.45322 56.36C3.33322 55.976 3.30922 55.628 3.38122 55.316C3.64522 54.188 4.10122 53.228 4.74923 52.436C5.42123 51.62 6.20122 50.936 7.08922 50.384C7.97722 49.832 8.92522 49.4 9.93322 49.088C10.9412 48.776 11.9252 48.548 12.8852 48.404C13.6532 48.26 14.5052 48.164 15.4412 48.116C16.4012 48.068 17.3492 48.092 18.2852 48.188C19.2452 48.284 20.1452 48.476 20.9852 48.764C21.8492 49.028 22.5812 49.412 23.1812 49.916C24.5012 50.756 25.4132 51.812 25.9172 53.084C26.4212 54.332 26.6132 55.652 26.4932 57.044C26.1332 58.604 25.4852 60.14 24.5492 61.652C23.6372 63.14 22.5692 64.532 21.3452 65.828C20.1212 67.124 18.8012 68.3 17.3852 69.356C15.9692 70.388 14.6012 71.24 13.2812 71.912C13.1132 72.032 12.9332 72.14 12.7412 72.236C12.5732 72.308 12.3812 72.404 12.1652 72.524C11.1092 73.028 10.1132 73.424 9.17723 73.712C8.24123 73.976 7.30522 74.144 6.36923 74.216C5.45722 74.312 4.52122 74.3 3.56122 74.18C2.60122 74.06 1.58122 73.832 0.501225 73.496C0.237225 73.352 0.105225 73.232 0.105225 73.136C0.105225 73.04 0.225225 72.908 0.465225 72.74C0.705225 72.62 0.945225 72.524 1.18522 72.452C1.42522 72.38 1.66522 72.332 1.90522 72.308C2.84122 72.044 3.76523 71.828 4.67723 71.66C5.61323 71.468 6.50123 71.18 7.34123 70.796V70.688ZM8.13322 70.436C8.49322 70.412 8.91323 70.304 9.39323 70.112C9.87323 69.92 10.3652 69.692 10.8692 69.428C11.3732 69.164 11.8532 68.9 12.3092 68.636C12.7652 68.348 13.1372 68.108 13.4252 67.916C15.4652 66.476 17.3612 64.904 19.1132 63.2C20.8892 61.472 22.3052 59.492 23.3612 57.26C23.5052 56.948 23.6372 56.636 23.7572 56.324C23.8772 55.988 23.9612 55.652 24.0092 55.316C24.1292 54.572 24.0692 53.948 23.8292 53.444C23.5892 52.916 23.2412 52.484 22.7852 52.148C22.3292 51.788 21.7892 51.512 21.1652 51.32C20.5412 51.128 19.9052 50.996 19.2572 50.924C18.6092 50.828 17.9732 50.792 17.3492 50.816C16.7492 50.816 16.2332 50.84 15.8012 50.888C15.7292 50.888 15.6932 50.972 15.6932 51.14V51.572C14.6852 54.86 13.5812 58.088 12.3812 61.256C11.2052 64.4 9.78922 67.46 8.13322 70.436Z" fill="white"/>
<path d="M23.9518 70.796C23.9038 69.884 23.9998 68.936 24.2398 67.952C24.4798 66.968 24.8398 66.068 25.3198 65.252C25.7998 64.412 26.3999 63.728 27.1199 63.2C27.8639 62.672 28.7278 62.396 29.7118 62.372C30.2158 62.492 30.5998 62.744 30.8638 63.128C31.1518 63.512 31.2359 63.98 31.1159 64.532C31.0199 65.06 30.8758 65.516 30.6838 65.9C30.5158 66.26 30.2158 66.644 29.7838 67.052C29.5678 67.244 29.2678 67.496 28.8839 67.808C28.4999 68.12 28.1278 68.444 27.7678 68.78C27.4078 69.116 27.0959 69.464 26.8319 69.824C26.5679 70.16 26.4359 70.448 26.4359 70.688C26.3639 71.312 26.4599 71.72 26.7239 71.912C26.9879 72.08 27.3238 72.152 27.7318 72.128C28.1638 72.08 28.5958 71.96 29.0278 71.768C29.4598 71.576 29.8078 71.408 30.0718 71.264C30.3838 71.048 30.7319 70.784 31.1159 70.472C31.4999 70.136 31.8838 69.788 32.2678 69.428C32.6518 69.068 33.0239 68.72 33.3839 68.384C33.7438 68.048 34.0439 67.772 34.2839 67.556C34.4759 67.364 34.6438 67.184 34.7878 67.016C34.9558 66.848 35.1478 66.704 35.3638 66.584C35.5558 66.536 35.6998 66.524 35.7958 66.548C35.9158 66.572 35.9038 66.752 35.7598 67.088C35.5678 67.496 35.3279 67.88 35.0399 68.24C34.7759 68.6 34.4879 68.96 34.1758 69.32C33.7439 69.8 33.2759 70.304 32.7719 70.832C32.2919 71.36 31.7759 71.852 31.2239 72.308C30.6959 72.74 30.1318 73.124 29.5318 73.46C28.9558 73.772 28.3558 73.976 27.7318 74.072C26.6278 74.144 25.7158 73.916 24.9958 73.388C24.2998 72.86 23.9518 71.996 23.9518 70.796ZM29.7118 64.028C29.0638 64.268 28.5478 64.58 28.1638 64.964C27.8038 65.348 27.5398 65.912 27.3718 66.656C27.8998 66.272 28.3679 65.888 28.7759 65.504C29.2079 65.096 29.5198 64.604 29.7118 64.028Z" fill="white"/>
<path d="M36.9343 71.012C37.1503 71.18 37.3663 71.144 37.5823 70.904C37.7983 70.64 38.0144 70.256 38.2304 69.752C38.4704 69.224 38.6983 68.612 38.9143 67.916C39.1303 67.196 39.3584 66.488 39.5984 65.792C39.8624 65.072 40.1264 64.388 40.3904 63.74C40.6784 63.068 40.9904 62.516 41.3264 62.084C41.4464 61.868 41.6384 61.688 41.9024 61.544C42.1904 61.4 42.4424 61.376 42.6584 61.472C42.8504 61.52 43.0064 61.64 43.1264 61.832C43.2464 62.024 43.2823 62.228 43.2343 62.444C43.2343 62.588 43.2343 62.744 43.2343 62.912C43.2343 63.056 43.2584 63.224 43.3064 63.416C43.4504 63.968 43.7264 64.388 44.1343 64.676C44.5424 64.964 44.9983 65.168 45.5023 65.288C46.0303 65.408 46.5583 65.456 47.0863 65.432C47.6383 65.384 48.1304 65.3 48.5624 65.18C48.6344 65.18 48.7183 65.168 48.8144 65.144C48.9344 65.12 49.0304 65.12 49.1024 65.144C49.1984 65.144 49.2583 65.168 49.2823 65.216C49.3063 65.264 49.2584 65.348 49.1384 65.468C48.6824 65.948 48.1664 66.296 47.5904 66.512C47.0384 66.704 46.4744 66.788 45.8983 66.764C45.3224 66.716 44.7583 66.56 44.2063 66.296C43.6543 66.032 43.1624 65.684 42.7304 65.252C42.5144 65.708 42.2263 66.344 41.8663 67.16C41.5063 67.952 41.0983 68.768 40.6423 69.608C40.2103 70.448 39.7424 71.216 39.2383 71.912C38.7344 72.584 38.2183 73.016 37.6903 73.208C37.0423 73.424 36.5024 73.412 36.0704 73.172C35.6384 72.908 35.2903 72.536 35.0263 72.056C34.7623 71.576 34.5824 71.036 34.4864 70.436C34.3664 69.836 34.3064 69.32 34.3064 68.888V67.232C34.3064 66.872 34.3184 66.536 34.3424 66.224C34.3664 65.888 34.4023 65.54 34.4503 65.18C34.4503 64.916 34.4624 64.652 34.4864 64.388C34.5104 64.124 34.5463 63.848 34.5943 63.56C34.5943 63.44 34.6184 63.356 34.6664 63.308C34.7384 63.236 34.8224 63.224 34.9184 63.272C35.6144 63.392 36.1304 63.704 36.4664 64.208C36.8024 64.712 36.9703 65.276 36.9703 65.9C36.9703 66.26 36.9463 66.668 36.8983 67.124C36.8503 67.58 36.8023 68.048 36.7543 68.528C36.7303 69.008 36.7183 69.464 36.7183 69.896C36.7183 70.304 36.7664 70.652 36.8624 70.94C36.8624 70.988 36.8743 71.012 36.8983 71.012H36.9343Z" fill="white"/>
<path d="M55.6971 66.548C54.7851 67.244 53.8971 67.928 53.0331 68.6C52.1931 69.248 51.4251 69.992 50.7291 70.832C50.3211 71.336 49.9371 71.864 49.5771 72.416C49.2411 72.944 48.9651 73.484 48.7491 74.036C48.5571 74.276 48.3291 74.324 48.0651 74.18C47.4891 73.748 47.0931 73.196 46.8771 72.524C46.6611 71.852 46.5651 71.144 46.5891 70.4C46.5891 69.632 46.6731 68.888 46.8411 68.168C46.9851 67.424 47.1411 66.776 47.3091 66.224C47.6931 64.832 48.1251 63.404 48.6051 61.94C49.1091 60.452 49.6371 58.988 50.1891 57.548C50.7651 56.108 51.3531 54.716 51.9531 53.372C52.5771 52.028 53.1771 50.78 53.7531 49.628C54.0651 49.028 54.4011 48.5 54.7611 48.044C55.1211 47.588 55.4931 47.216 55.8771 46.928C56.0931 46.76 56.3091 46.676 56.5251 46.676C56.7651 46.652 56.9811 46.688 57.1731 46.784C57.3651 46.88 57.5211 47.024 57.6411 47.216C57.7851 47.384 57.8691 47.564 57.8931 47.756C58.0371 48.788 57.9291 49.976 57.5691 51.32C57.2091 52.664 56.7171 54.02 56.0931 55.388C55.4691 56.732 54.7731 58.004 54.0051 59.204C53.2611 60.38 52.5531 61.316 51.8811 62.012C51.7851 62.108 51.7371 62.18 51.7371 62.228C51.3531 63.236 51.0171 64.22 50.7291 65.18C50.4411 66.14 50.1291 67.1 49.7931 68.06C49.7451 68.324 49.6851 68.6 49.6131 68.888C49.5651 69.176 49.5411 69.464 49.5411 69.752C49.8051 69.392 50.1171 69.044 50.4771 68.708C51.2211 67.988 52.0011 67.304 52.8171 66.656C53.6331 66.008 54.5091 65.444 55.4451 64.964C55.8291 64.772 56.2011 64.628 56.5611 64.532C56.9451 64.412 57.3291 64.412 57.7131 64.532C58.0251 64.604 58.3371 64.724 58.6491 64.892C58.9851 65.132 59.1531 65.384 59.1531 65.648C59.1771 65.912 59.1411 66.212 59.0451 66.548C58.8051 67.436 58.4931 68.408 58.1091 69.464C57.7491 70.52 57.4011 71.528 57.0651 72.488C56.7291 73.424 56.4411 74.228 56.2011 74.9C55.9611 75.596 55.8651 76.016 55.9131 76.16C56.0331 76.4 56.2611 76.412 56.5971 76.196C56.9571 75.98 57.3771 75.632 57.8571 75.152C58.3611 74.672 58.9011 74.096 59.4771 73.424C60.0771 72.752 60.6651 72.08 61.2411 71.408C61.8411 70.712 62.4171 70.064 62.9691 69.464C63.5211 68.84 63.9891 68.348 64.3731 67.988C64.6851 67.676 64.9491 67.544 65.1651 67.592C65.3811 67.64 65.4171 67.892 65.2731 68.348C65.0811 68.684 64.7691 69.176 64.3371 69.824C63.9051 70.448 63.3891 71.144 62.7891 71.912C62.2131 72.68 61.5891 73.46 60.9171 74.252C60.2451 75.044 59.5731 75.764 58.9011 76.412C58.2531 77.06 57.6291 77.588 57.0291 77.996C56.4291 78.428 55.9131 78.644 55.4811 78.644C55.0491 78.644 54.6411 78.56 54.2571 78.392C53.8971 78.224 53.5851 77.984 53.3211 77.672C53.0571 77.384 52.8531 77.036 52.7091 76.628C52.5891 76.244 52.5531 75.812 52.6011 75.332C52.6251 75.14 52.6611 74.936 52.7091 74.72C52.7571 74.528 52.8171 74.288 52.8891 74C53.1531 73.304 53.3931 72.608 53.6091 71.912C53.8491 71.216 54.1011 70.52 54.3651 69.824C54.7491 68.816 55.2531 67.772 55.8771 66.692V66.62C55.8771 66.572 55.8171 66.548 55.6971 66.548ZM52.0251 60.752C52.2411 60.584 52.5411 60.224 52.9251 59.672C53.3331 59.12 53.7411 58.46 54.1491 57.692C54.5811 56.924 55.0011 56.108 55.4091 55.244C55.8411 54.356 56.2011 53.504 56.4891 52.688C56.8011 51.872 57.0171 51.14 57.1371 50.492C57.2811 49.844 57.2691 49.364 57.1011 49.052C56.8371 49.628 56.4651 50.456 55.9851 51.536C55.5291 52.592 55.0491 53.708 54.5451 54.884C54.0411 56.06 53.5491 57.188 53.0691 58.268C52.6131 59.348 52.2651 60.176 52.0251 60.752Z" fill="white"/>
<path d="M79.6801 66.944H79.7161V67.232C79.4761 68.096 79.1041 68.876 78.6001 69.572C78.4081 69.812 78.1681 70.16 77.8801 70.616C77.6161 71.048 77.3761 71.396 77.1601 71.66C76.6561 72.212 76.1761 72.704 75.7201 73.136C75.2881 73.544 74.7601 73.916 74.1361 74.252C73.8481 74.396 73.5241 74.516 73.1641 74.612C72.8281 74.732 72.4801 74.792 72.1201 74.792C71.7841 74.792 71.4601 74.732 71.1481 74.612C70.8361 74.492 70.5721 74.276 70.3561 73.964C69.9721 73.484 69.7561 72.92 69.7081 72.272C69.6841 71.6 69.8041 70.916 70.0681 70.22C70.0201 70.268 69.9481 70.34 69.8521 70.436C69.7561 70.532 69.6481 70.64 69.5281 70.76C69.4081 70.88 69.2881 71 69.1681 71.12C69.0721 71.216 69.0001 71.276 68.9521 71.3C68.5921 71.66 68.2321 71.972 67.8721 72.236C67.5121 72.5 67.1401 72.728 66.7561 72.92C66.4441 73.064 66.1681 73.148 65.9281 73.172C65.7121 73.196 65.5081 73.16 65.3161 73.064C65.1241 72.944 64.9321 72.776 64.7401 72.56C64.5721 72.344 64.3801 72.092 64.1641 71.804C63.8521 71.372 63.6241 70.952 63.4801 70.544C63.3121 70.112 63.2761 69.656 63.3721 69.176C63.4201 69.008 63.4681 68.84 63.5161 68.672C63.5401 68.504 63.5881 68.348 63.6601 68.204C63.8041 67.796 63.9721 67.328 64.1641 66.8C64.3801 66.272 64.5961 65.744 64.8121 65.216C65.0281 64.688 65.2321 64.196 65.4241 63.74C65.6401 63.26 65.8201 62.876 65.9641 62.588C66.1321 62.156 66.3841 61.94 66.7201 61.94C67.0561 61.94 67.3561 62.072 67.6201 62.336C67.9081 62.6 68.1241 62.948 68.2681 63.38C68.4121 63.812 68.3761 64.232 68.1601 64.64C68.0401 64.928 67.8601 65.336 67.6201 65.864C67.3801 66.392 67.1281 66.944 66.8641 67.52C66.6241 68.072 66.4081 68.6 66.2161 69.104C66.0241 69.608 65.9161 69.98 65.8921 70.22C65.8921 70.748 65.9881 71.024 66.1801 71.048C66.3961 71.072 66.6721 70.94 67.0081 70.652C67.3681 70.364 67.7521 69.968 68.1601 69.464C68.5921 68.936 69.0241 68.384 69.4561 67.808C69.8881 67.232 70.2841 66.68 70.6441 66.152C71.0281 65.6 71.3521 65.156 71.6161 64.82C71.9521 64.22 72.2281 63.692 72.4441 63.236C72.6841 62.756 73.0321 62.288 73.4881 61.832C73.7281 61.736 74.0161 61.76 74.3521 61.904C74.6881 62.024 74.9881 62.216 75.2521 62.48C75.5161 62.744 75.6961 63.044 75.7921 63.38C75.9121 63.692 75.8881 63.968 75.7201 64.208C75.2881 64.76 74.8921 65.228 74.5321 65.612C74.1961 65.996 73.8721 66.488 73.5601 67.088C73.3921 67.472 73.2001 67.904 72.9841 68.384C72.7681 68.84 72.5641 69.32 72.3721 69.824C72.2041 70.304 72.0601 70.784 71.9401 71.264C71.8441 71.72 71.8201 72.128 71.8681 72.488C71.8681 72.896 72.0721 73.064 72.4801 72.992C73.0561 72.896 73.6921 72.596 74.3881 72.092C75.0841 71.564 75.7681 70.976 76.4401 70.328C77.1121 69.656 77.7361 69.008 78.3121 68.384C78.8881 67.736 79.3441 67.256 79.6801 66.944Z" fill="white"/>
<path d="M81.7119 69.752C82.1919 70.088 82.6959 70.232 83.2239 70.184C83.7519 70.136 84.2439 69.968 84.6999 69.68C85.1559 69.392 85.5399 69.008 85.8519 68.528C86.1639 68.048 86.3439 67.544 86.3919 67.016C85.5759 67.376 84.7599 67.808 83.9439 68.312C83.1519 68.792 82.4079 69.272 81.7119 69.752ZM79.9839 69.464C80.2719 69.464 80.4879 69.404 80.6319 69.284C80.7759 69.14 80.9319 69.008 81.0999 68.888C81.6519 68.312 82.2639 67.808 82.9359 67.376C83.6319 66.92 84.3519 66.512 85.0959 66.152C85.4559 66.008 85.7559 65.852 85.9959 65.684H85.7079C85.6359 65.732 85.5639 65.768 85.4919 65.792C85.4199 65.792 85.3239 65.816 85.2039 65.864C83.3799 66.512 81.7479 67.544 80.3079 68.96C80.2359 69.008 80.1879 69.08 80.1639 69.176C80.1399 69.272 80.0799 69.368 79.9839 69.464ZM80.9199 66.656C81.3759 66.32 81.8199 66.032 82.2519 65.792C82.7079 65.552 83.1519 65.312 83.5839 65.072C83.9679 64.856 84.4119 64.676 84.9159 64.532C85.4199 64.364 85.8999 64.28 86.3559 64.28C86.8359 64.256 87.2679 64.34 87.6519 64.532C88.0359 64.724 88.3239 65.072 88.5159 65.576C88.5159 65.72 88.5399 65.804 88.5879 65.828C88.6359 65.852 88.7079 65.864 88.8039 65.864C89.6199 65.864 90.4359 65.936 91.2519 66.08C92.0919 66.2 92.7639 66.44 93.2679 66.8C93.4359 66.92 93.5079 67.004 93.4839 67.052C93.4599 67.1 93.3879 67.136 93.2679 67.16C93.1719 67.184 93.0519 67.196 92.9079 67.196C92.7639 67.196 92.6799 67.196 92.6559 67.196C92.1039 67.148 91.5759 67.088 91.0719 67.016C90.5919 66.92 90.0999 66.872 89.5959 66.872H88.8039C88.6839 67.616 88.4679 68.396 88.1559 69.212C87.8439 70.028 87.4359 70.784 86.9319 71.48C86.4279 72.152 85.8279 72.704 85.1319 73.136C84.4359 73.568 83.6559 73.76 82.7919 73.712C82.2159 73.736 81.7359 73.652 81.3519 73.46C80.9919 73.268 80.6919 73.028 80.4519 72.74C80.2359 72.428 80.0559 72.092 79.9119 71.732C79.7919 71.372 79.6959 71.036 79.6239 70.724C79.6239 70.772 79.5999 70.82 79.5519 70.868C79.5039 70.892 79.4799 70.928 79.4799 70.976C79.3119 71.456 79.1439 71.936 78.9759 72.416C78.8079 72.896 78.6159 73.412 78.3999 73.964C78.2079 74.492 77.9919 75.056 77.7519 75.656C77.4879 76.28 77.1999 76.964 76.8879 77.708C76.8399 77.828 76.7919 77.9 76.7439 77.924C76.6959 77.948 76.6359 77.984 76.5639 78.032C76.4439 78.128 76.3239 78.164 76.2039 78.14C76.0599 78.116 75.9639 78.044 75.9159 77.924C75.8439 76.772 75.9039 75.596 76.0959 74.396C76.2639 73.22 76.5039 72.044 76.8159 70.868C77.1039 69.692 77.4399 68.54 77.8239 67.412C78.1839 66.284 78.5199 65.192 78.8319 64.136C79.6719 61.712 80.5599 59.468 81.4959 57.404C82.4319 55.316 83.4279 53.252 84.4839 51.212C84.9159 50.42 85.3359 49.64 85.7439 48.872C86.1759 48.104 86.6679 47.408 87.2199 46.784C87.3879 46.568 87.5919 46.412 87.8319 46.316C88.0959 46.22 88.3599 46.232 88.6239 46.352C89.1519 46.592 89.3799 47.036 89.3079 47.684C89.1879 48.596 89.0199 49.52 88.8039 50.456C88.6119 51.368 88.3359 52.268 87.9759 53.156C87.2559 54.884 86.4519 56.54 85.5639 58.124C84.6759 59.684 83.6559 61.172 82.5039 62.588C82.3599 62.732 82.2159 62.984 82.0719 63.344C81.9279 63.704 81.7839 64.088 81.6399 64.496C81.5199 64.904 81.3999 65.312 81.2799 65.72C81.1599 66.104 81.0399 66.416 80.9199 66.656ZM88.5519 49.376C87.5199 51.104 86.5959 52.88 85.7799 54.704C84.9639 56.528 84.1479 58.352 83.3319 60.176C83.5479 59.96 83.8119 59.6 84.1239 59.096C84.4599 58.568 84.8079 57.98 85.1679 57.332C85.5279 56.66 85.8879 55.94 86.2479 55.172C86.6079 54.404 86.9439 53.66 87.2559 52.94C87.5679 52.22 87.8319 51.548 88.0479 50.924C88.2879 50.276 88.4559 49.76 88.5519 49.376Z" fill="white"/>
</svg>
